<mxfile host="app.diagrams.net" agent="Mozilla/5.0 (Windows NT 10.0; Win64; x64) AppleWebKit/537.36 (KHTML, like Gecko) Chrome/131.0.0.0 Safari/537.36" version="25.0.3">
  <diagram id="6a731a19-8d31-9384-78a2-239565b7b9f0" name="Page-1">
    <mxGraphModel dx="2843" dy="780" grid="0" gridSize="10" guides="1" tooltips="1" connect="1" arrows="1" fold="1" page="1" pageScale="1" pageWidth="1169" pageHeight="827" background="none" math="0" shadow="0">
      <root>
        <mxCell id="0" />
        <mxCell id="1" parent="0" />
        <mxCell id="lUV5qcwQjhjCgoKluF-U-65" style="edgeStyle=orthogonalEdgeStyle;rounded=0;orthogonalLoop=1;jettySize=auto;html=1;exitX=0.5;exitY=1;exitDx=0;exitDy=0;entryX=0.5;entryY=0;entryDx=0;entryDy=0;" parent="1" source="lUV5qcwQjhjCgoKluF-U-56" target="lUV5qcwQjhjCgoKluF-U-64" edge="1">
          <mxGeometry relative="1" as="geometry" />
        </mxCell>
        <mxCell id="lUV5qcwQjhjCgoKluF-U-56" value="Start" style="ellipse;whiteSpace=wrap;html=1;strokeColor=#33FF33;fillColor=#C1FBC3;" parent="1" vertex="1">
          <mxGeometry x="320" y="40" width="80" height="40" as="geometry" />
        </mxCell>
        <mxCell id="lUV5qcwQjhjCgoKluF-U-113" style="edgeStyle=orthogonalEdgeStyle;rounded=0;orthogonalLoop=1;jettySize=auto;html=1;exitX=1;exitY=0.5;exitDx=0;exitDy=0;entryX=0.5;entryY=1;entryDx=0;entryDy=0;" parent="1" source="lUV5qcwQjhjCgoKluF-U-57" target="lUV5qcwQjhjCgoKluF-U-70" edge="1">
          <mxGeometry relative="1" as="geometry">
            <Array as="points">
              <mxPoint x="720" y="480" />
              <mxPoint x="720" y="320" />
              <mxPoint x="680" y="320" />
            </Array>
          </mxGeometry>
        </mxCell>
        <mxCell id="lUV5qcwQjhjCgoKluF-U-114" style="edgeStyle=orthogonalEdgeStyle;rounded=0;orthogonalLoop=1;jettySize=auto;html=1;exitX=0.5;exitY=0;exitDx=0;exitDy=0;entryX=1;entryY=0.5;entryDx=0;entryDy=0;" parent="1" source="lUV5qcwQjhjCgoKluF-U-57" target="lUV5qcwQjhjCgoKluF-U-72" edge="1">
          <mxGeometry relative="1" as="geometry" />
        </mxCell>
        <mxCell id="lUV5qcwQjhjCgoKluF-U-57" value="Continue?" style="rhombus;whiteSpace=wrap;html=1;strokeColor=#33FF33;fillColor=#C1FBC3;" parent="1" vertex="1">
          <mxGeometry x="600" y="440" width="80" height="80" as="geometry" />
        </mxCell>
        <mxCell id="lUV5qcwQjhjCgoKluF-U-63" value="" style="rhombus;whiteSpace=wrap;html=1;strokeColor=#33FF33;fillColor=#C1FBC3;" parent="1" vertex="1">
          <mxGeometry x="-40" y="80" width="80" height="80" as="geometry" />
        </mxCell>
        <mxCell id="lUV5qcwQjhjCgoKluF-U-67" style="edgeStyle=orthogonalEdgeStyle;rounded=0;orthogonalLoop=1;jettySize=auto;html=1;exitX=1;exitY=0.5;exitDx=0;exitDy=0;" parent="1" source="lUV5qcwQjhjCgoKluF-U-64" edge="1">
          <mxGeometry relative="1" as="geometry">
            <mxPoint x="440" y="160.1428571428571" as="targetPoint" />
          </mxGeometry>
        </mxCell>
        <mxCell id="lUV5qcwQjhjCgoKluF-U-68" style="edgeStyle=orthogonalEdgeStyle;rounded=0;orthogonalLoop=1;jettySize=auto;html=1;exitX=0;exitY=0.5;exitDx=0;exitDy=0;" parent="1" edge="1">
          <mxGeometry relative="1" as="geometry">
            <mxPoint x="280" y="159.5828571428571" as="targetPoint" />
            <mxPoint x="320" y="159.44" as="sourcePoint" />
          </mxGeometry>
        </mxCell>
        <mxCell id="lUV5qcwQjhjCgoKluF-U-97" style="edgeStyle=orthogonalEdgeStyle;rounded=0;orthogonalLoop=1;jettySize=auto;html=1;exitX=0.5;exitY=1;exitDx=0;exitDy=0;entryX=0.5;entryY=0;entryDx=0;entryDy=0;" parent="1" source="lUV5qcwQjhjCgoKluF-U-64" target="lUV5qcwQjhjCgoKluF-U-75" edge="1">
          <mxGeometry relative="1" as="geometry" />
        </mxCell>
        <mxCell id="lUV5qcwQjhjCgoKluF-U-64" value="Main Menu" style="rhombus;whiteSpace=wrap;html=1;strokeColor=#33FF33;fillColor=#C1FBC3;" parent="1" vertex="1">
          <mxGeometry x="320" y="120" width="80" height="80" as="geometry" />
        </mxCell>
        <mxCell id="lUV5qcwQjhjCgoKluF-U-71" style="edgeStyle=orthogonalEdgeStyle;rounded=0;orthogonalLoop=1;jettySize=auto;html=1;exitX=1;exitY=0.5;exitDx=0;exitDy=0;entryX=0;entryY=0.5;entryDx=0;entryDy=0;" parent="1" source="lUV5qcwQjhjCgoKluF-U-69" target="lUV5qcwQjhjCgoKluF-U-70" edge="1">
          <mxGeometry relative="1" as="geometry" />
        </mxCell>
        <mxCell id="lUV5qcwQjhjCgoKluF-U-69" value="Quit Game" style="rounded=0;whiteSpace=wrap;html=1;strokeColor=#33FF33;fillColor=#C1FBC3;" parent="1" vertex="1">
          <mxGeometry x="440" y="130" width="120" height="60" as="geometry" />
        </mxCell>
        <mxCell id="lUV5qcwQjhjCgoKluF-U-70" value="End Game" style="ellipse;whiteSpace=wrap;html=1;strokeColor=#33FF33;fillColor=#C1FBC3;" parent="1" vertex="1">
          <mxGeometry x="640" y="140" width="80" height="40" as="geometry" />
        </mxCell>
        <mxCell id="lUV5qcwQjhjCgoKluF-U-100" style="edgeStyle=orthogonalEdgeStyle;rounded=0;orthogonalLoop=1;jettySize=auto;html=1;exitX=0.5;exitY=1;exitDx=0;exitDy=0;entryX=0.5;entryY=0;entryDx=0;entryDy=0;" parent="1" source="lUV5qcwQjhjCgoKluF-U-72" target="lUV5qcwQjhjCgoKluF-U-76" edge="1">
          <mxGeometry relative="1" as="geometry" />
        </mxCell>
        <mxCell id="lUV5qcwQjhjCgoKluF-U-72" value="Fight Enemy" style="rounded=0;whiteSpace=wrap;html=1;strokeColor=#33FF33;fillColor=#C1FBC3;" parent="1" vertex="1">
          <mxGeometry x="300" y="340" width="120" height="60" as="geometry" />
        </mxCell>
        <mxCell id="lUV5qcwQjhjCgoKluF-U-73" value="" style="rounded=0;whiteSpace=wrap;html=1;strokeColor=#33FF33;fillColor=#C1FBC3;" parent="1" vertex="1">
          <mxGeometry x="-320" y="240" width="120" height="60" as="geometry" />
        </mxCell>
        <mxCell id="lUV5qcwQjhjCgoKluF-U-99" style="edgeStyle=orthogonalEdgeStyle;rounded=0;orthogonalLoop=1;jettySize=auto;html=1;exitX=0.5;exitY=1;exitDx=0;exitDy=0;entryX=0;entryY=0.5;entryDx=0;entryDy=0;" parent="1" source="lUV5qcwQjhjCgoKluF-U-74" target="lUV5qcwQjhjCgoKluF-U-72" edge="1">
          <mxGeometry relative="1" as="geometry" />
        </mxCell>
        <mxCell id="lUV5qcwQjhjCgoKluF-U-74" value="Load Character" style="rounded=0;whiteSpace=wrap;html=1;strokeColor=#33FF33;fillColor=#C1FBC3;" parent="1" vertex="1">
          <mxGeometry x="160" y="130" width="120" height="60" as="geometry" />
        </mxCell>
        <mxCell id="lUV5qcwQjhjCgoKluF-U-98" style="edgeStyle=orthogonalEdgeStyle;rounded=0;orthogonalLoop=1;jettySize=auto;html=1;exitX=0.5;exitY=1;exitDx=0;exitDy=0;entryX=0.5;entryY=0;entryDx=0;entryDy=0;" parent="1" source="lUV5qcwQjhjCgoKluF-U-75" target="lUV5qcwQjhjCgoKluF-U-72" edge="1">
          <mxGeometry relative="1" as="geometry" />
        </mxCell>
        <mxCell id="lUV5qcwQjhjCgoKluF-U-75" value="Create Character" style="rounded=0;whiteSpace=wrap;html=1;strokeColor=#33FF33;fillColor=#C1FBC3;" parent="1" vertex="1">
          <mxGeometry x="300" y="240" width="120" height="60" as="geometry" />
        </mxCell>
        <mxCell id="lUV5qcwQjhjCgoKluF-U-108" style="edgeStyle=orthogonalEdgeStyle;rounded=0;orthogonalLoop=1;jettySize=auto;html=1;exitX=0.5;exitY=1;exitDx=0;exitDy=0;" parent="1" source="lUV5qcwQjhjCgoKluF-U-76" edge="1">
          <mxGeometry relative="1" as="geometry">
            <mxPoint x="359.9230769230767" y="560" as="targetPoint" />
          </mxGeometry>
        </mxCell>
        <mxCell id="lUV5qcwQjhjCgoKluF-U-76" value="Survive?" style="rhombus;whiteSpace=wrap;html=1;strokeColor=#33FF33;fillColor=#C1FBC3;" parent="1" vertex="1">
          <mxGeometry x="320" y="440" width="80" height="80" as="geometry" />
        </mxCell>
        <mxCell id="lUV5qcwQjhjCgoKluF-U-117" style="edgeStyle=orthogonalEdgeStyle;rounded=0;orthogonalLoop=1;jettySize=auto;html=1;exitX=0.5;exitY=1;exitDx=0;exitDy=0;" parent="1" source="lUV5qcwQjhjCgoKluF-U-77" edge="1">
          <mxGeometry relative="1" as="geometry">
            <mxPoint x="359.89473684210543" y="880" as="targetPoint" />
          </mxGeometry>
        </mxCell>
        <mxCell id="lUV5qcwQjhjCgoKluF-U-139" style="edgeStyle=orthogonalEdgeStyle;rounded=0;orthogonalLoop=1;jettySize=auto;html=1;exitX=1;exitY=0.5;exitDx=0;exitDy=0;entryX=0.5;entryY=1;entryDx=0;entryDy=0;" parent="1" source="lUV5qcwQjhjCgoKluF-U-77" target="lUV5qcwQjhjCgoKluF-U-57" edge="1">
          <mxGeometry relative="1" as="geometry" />
        </mxCell>
        <mxCell id="lUV5qcwQjhjCgoKluF-U-77" value="Level up?" style="rhombus;whiteSpace=wrap;html=1;strokeColor=#33FF33;fillColor=#C1FBC3;" parent="1" vertex="1">
          <mxGeometry x="320" y="760" width="80" height="80" as="geometry" />
        </mxCell>
        <mxCell id="lUV5qcwQjhjCgoKluF-U-78" value="" style="shape=parallelogram;perimeter=parallelogramPerimeter;whiteSpace=wrap;html=1;fixedSize=1;strokeColor=#33FF33;fillColor=#C1FBC3;" parent="1" vertex="1">
          <mxGeometry x="-320" y="80" width="120" height="60" as="geometry" />
        </mxCell>
        <mxCell id="lUV5qcwQjhjCgoKluF-U-102" value="No" style="text;html=1;align=center;verticalAlign=middle;resizable=0;points=[];autosize=1;strokeColor=none;fillColor=none;" parent="1" vertex="1">
          <mxGeometry x="400" y="458" width="40" height="30" as="geometry" />
        </mxCell>
        <mxCell id="lUV5qcwQjhjCgoKluF-U-116" style="edgeStyle=orthogonalEdgeStyle;rounded=0;orthogonalLoop=1;jettySize=auto;html=1;exitX=0.5;exitY=1;exitDx=0;exitDy=0;" parent="1" source="lUV5qcwQjhjCgoKluF-U-104" target="lUV5qcwQjhjCgoKluF-U-77" edge="1">
          <mxGeometry relative="1" as="geometry" />
        </mxCell>
        <mxCell id="lUV5qcwQjhjCgoKluF-U-104" value="Get Exp" style="rounded=0;whiteSpace=wrap;html=1;strokeColor=#33FF33;fillColor=#C1FBC3;" parent="1" vertex="1">
          <mxGeometry x="300" y="660" width="120" height="60" as="geometry" />
        </mxCell>
        <mxCell id="lUV5qcwQjhjCgoKluF-U-109" style="edgeStyle=orthogonalEdgeStyle;rounded=0;orthogonalLoop=1;jettySize=auto;html=1;exitX=0.5;exitY=1;exitDx=0;exitDy=0;entryX=0.5;entryY=0;entryDx=0;entryDy=0;" parent="1" source="lUV5qcwQjhjCgoKluF-U-105" target="lUV5qcwQjhjCgoKluF-U-104" edge="1">
          <mxGeometry relative="1" as="geometry" />
        </mxCell>
        <mxCell id="lUV5qcwQjhjCgoKluF-U-105" value="Win" style="rounded=0;whiteSpace=wrap;html=1;strokeColor=#33FF33;fillColor=#C1FBC3;" parent="1" vertex="1">
          <mxGeometry x="300" y="560" width="120" height="60" as="geometry" />
        </mxCell>
        <mxCell id="lUV5qcwQjhjCgoKluF-U-110" style="edgeStyle=orthogonalEdgeStyle;rounded=0;orthogonalLoop=1;jettySize=auto;html=1;exitX=1;exitY=0.5;exitDx=0;exitDy=0;entryX=0;entryY=0.5;entryDx=0;entryDy=0;" parent="1" source="lUV5qcwQjhjCgoKluF-U-106" target="lUV5qcwQjhjCgoKluF-U-57" edge="1">
          <mxGeometry relative="1" as="geometry" />
        </mxCell>
        <mxCell id="lUV5qcwQjhjCgoKluF-U-106" value="Die" style="rounded=0;whiteSpace=wrap;html=1;strokeColor=#33FF33;fillColor=#C1FBC3;" parent="1" vertex="1">
          <mxGeometry x="440" y="450" width="120" height="60" as="geometry" />
        </mxCell>
        <mxCell id="lUV5qcwQjhjCgoKluF-U-107" style="edgeStyle=orthogonalEdgeStyle;rounded=0;orthogonalLoop=1;jettySize=auto;html=1;exitX=1;exitY=0.5;exitDx=0;exitDy=0;entryX=0.982;entryY=0.752;entryDx=0;entryDy=0;entryPerimeter=0;" parent="1" source="lUV5qcwQjhjCgoKluF-U-76" target="lUV5qcwQjhjCgoKluF-U-102" edge="1">
          <mxGeometry relative="1" as="geometry" />
        </mxCell>
        <mxCell id="lUV5qcwQjhjCgoKluF-U-112" value="No" style="text;html=1;align=center;verticalAlign=middle;resizable=0;points=[];autosize=1;strokeColor=none;fillColor=none;" parent="1" vertex="1">
          <mxGeometry x="680" y="290" width="40" height="30" as="geometry" />
        </mxCell>
        <mxCell id="lUV5qcwQjhjCgoKluF-U-115" value="Yes" style="text;html=1;align=center;verticalAlign=middle;resizable=0;points=[];autosize=1;strokeColor=none;fillColor=none;" parent="1" vertex="1">
          <mxGeometry x="600" y="370" width="40" height="30" as="geometry" />
        </mxCell>
        <mxCell id="lUV5qcwQjhjCgoKluF-U-119" value="Yes" style="text;html=1;align=center;verticalAlign=middle;resizable=0;points=[];autosize=1;strokeColor=none;fillColor=none;" parent="1" vertex="1">
          <mxGeometry x="360" y="840" width="40" height="30" as="geometry" />
        </mxCell>
        <mxCell id="lUV5qcwQjhjCgoKluF-U-120" value="No" style="text;html=1;align=center;verticalAlign=middle;resizable=0;points=[];autosize=1;strokeColor=none;fillColor=none;" parent="1" vertex="1">
          <mxGeometry x="400" y="770" width="40" height="30" as="geometry" />
        </mxCell>
        <mxCell id="lUV5qcwQjhjCgoKluF-U-123" value="" style="rhombus;whiteSpace=wrap;html=1;strokeColor=#33FF33;fillColor=#C1FBC3;" parent="1" vertex="1">
          <mxGeometry x="-30" y="90" width="80" height="80" as="geometry" />
        </mxCell>
        <mxCell id="lUV5qcwQjhjCgoKluF-U-124" value="" style="rhombus;whiteSpace=wrap;html=1;strokeColor=#33FF33;fillColor=#C1FBC3;" parent="1" vertex="1">
          <mxGeometry x="-20" y="100" width="80" height="80" as="geometry" />
        </mxCell>
        <mxCell id="lUV5qcwQjhjCgoKluF-U-125" value="" style="rhombus;whiteSpace=wrap;html=1;strokeColor=#33FF33;fillColor=#C1FBC3;" parent="1" vertex="1">
          <mxGeometry x="-10" y="110" width="80" height="80" as="geometry" />
        </mxCell>
        <mxCell id="lUV5qcwQjhjCgoKluF-U-126" value="" style="rhombus;whiteSpace=wrap;html=1;strokeColor=#33FF33;fillColor=#C1FBC3;" parent="1" vertex="1">
          <mxGeometry y="120" width="80" height="80" as="geometry" />
        </mxCell>
        <mxCell id="lUV5qcwQjhjCgoKluF-U-133" value="" style="rounded=0;whiteSpace=wrap;html=1;strokeColor=#33FF33;fillColor=#C1FBC3;" parent="1" vertex="1">
          <mxGeometry x="-310" y="250" width="120" height="60" as="geometry" />
        </mxCell>
        <mxCell id="lUV5qcwQjhjCgoKluF-U-134" value="" style="rounded=0;whiteSpace=wrap;html=1;strokeColor=#33FF33;fillColor=#C1FBC3;" parent="1" vertex="1">
          <mxGeometry x="-300" y="260" width="120" height="60" as="geometry" />
        </mxCell>
        <mxCell id="lUV5qcwQjhjCgoKluF-U-135" value="" style="rounded=0;whiteSpace=wrap;html=1;strokeColor=#33FF33;fillColor=#C1FBC3;" parent="1" vertex="1">
          <mxGeometry x="-290" y="270" width="120" height="60" as="geometry" />
        </mxCell>
        <mxCell id="lUV5qcwQjhjCgoKluF-U-138" style="edgeStyle=orthogonalEdgeStyle;rounded=0;orthogonalLoop=1;jettySize=auto;html=1;exitX=1;exitY=0.5;exitDx=0;exitDy=0;entryX=0.5;entryY=1;entryDx=0;entryDy=0;" parent="1" source="lUV5qcwQjhjCgoKluF-U-136" target="lUV5qcwQjhjCgoKluF-U-57" edge="1">
          <mxGeometry relative="1" as="geometry" />
        </mxCell>
        <mxCell id="lUV5qcwQjhjCgoKluF-U-136" value="Level up" style="rounded=0;whiteSpace=wrap;html=1;strokeColor=#33FF33;fillColor=#C1FBC3;" parent="1" vertex="1">
          <mxGeometry x="300" y="880" width="120" height="60" as="geometry" />
        </mxCell>
        <mxCell id="lUV5qcwQjhjCgoKluF-U-140" value="" style="shape=parallelogram;perimeter=parallelogramPerimeter;whiteSpace=wrap;html=1;fixedSize=1;strokeColor=#33FF33;fillColor=#C1FBC3;" parent="1" vertex="1">
          <mxGeometry x="-310" y="90" width="120" height="60" as="geometry" />
        </mxCell>
        <mxCell id="lUV5qcwQjhjCgoKluF-U-141" value="" style="shape=parallelogram;perimeter=parallelogramPerimeter;whiteSpace=wrap;html=1;fixedSize=1;strokeColor=#33FF33;fillColor=#C1FBC3;" parent="1" vertex="1">
          <mxGeometry x="-300" y="100" width="120" height="60" as="geometry" />
        </mxCell>
        <mxCell id="lUV5qcwQjhjCgoKluF-U-142" value="" style="shape=parallelogram;perimeter=parallelogramPerimeter;whiteSpace=wrap;html=1;fixedSize=1;strokeColor=#33FF33;fillColor=#C1FBC3;" parent="1" vertex="1">
          <mxGeometry x="-290" y="110" width="120" height="60" as="geometry" />
        </mxCell>
        <mxCell id="lUV5qcwQjhjCgoKluF-U-143" value="" style="shape=parallelogram;perimeter=parallelogramPerimeter;whiteSpace=wrap;html=1;fixedSize=1;strokeColor=#33FF33;fillColor=#C1FBC3;" parent="1" vertex="1">
          <mxGeometry x="-280" y="120" width="120" height="60" as="geometry" />
        </mxCell>
      </root>
    </mxGraphModel>
  </diagram>
</mxfile>
